<svg id="レイヤー_1" data-name="レイヤー 1" xmlns="http://www.w3.org/2000/svg" width="40" height="40" viewBox="0 0 40 40"><title>アートボード 2 のコピー</title><path d="M31.08,40H17.59a1.54,1.54,0,0,1-1.54-1.55A12.24,12.24,0,0,0,15.41,34a25.07,25.07,0,0,0-4.24-5L11.11,29a5,5,0,0,1-1.36-3.63,3.7,3.7,0,0,1,6.31-2.55V13.25a3.77,3.77,0,0,1,7.54,0v4.56a3.35,3.35,0,0,1,1.26,0,3,3,0,0,1,2,1.22,3.53,3.53,0,0,1,2-.06,3.24,3.24,0,0,1,2,1.54,3.75,3.75,0,0,1,3,.47,4.23,4.23,0,0,1,1.66,3.46c0,.11,0,.27,0,.46a19.31,19.31,0,0,1-.85,7,10,10,0,0,1-.56,1.22l-.11.22a2.39,2.39,0,0,1-.13.21,7.13,7.13,0,0,0-1.17,2.17c-.07.56-.06,2.14,0,2.71A1.55,1.55,0,0,1,31.08,40ZM18.35,37.69h12c0-.71,0-1.71.07-2.23A8.74,8.74,0,0,1,32,32.21l.06-.12a10.71,10.71,0,0,0,.45-1,16.8,16.8,0,0,0,.7-6.12c0-.23,0-.41,0-.54h0a1.93,1.93,0,0,0-.63-1.52A1.33,1.33,0,0,0,31,23a1.15,1.15,0,0,1-2-.66c-.07-.48-.32-1-.76-1.11a1,1,0,0,0-1.11.28l-.09.1a1.15,1.15,0,0,1-1.19.29A1.16,1.16,0,0,1,25.1,21c-.09-.68-.22-.77-.7-.87a.83.83,0,0,0-1,.48A1.15,1.15,0,0,1,21.28,20V13.25a1.46,1.46,0,0,0-2.92,0V21.1l0,4.33a1.16,1.16,0,0,1-.82,1.11,1.17,1.17,0,0,1-1.21-.35c-.13-.13-.65-.6-1-.91s-.74-.66-.85-.77a1.34,1.34,0,0,0-2-.12l-.08.07a1.36,1.36,0,0,0-.38,1,2.61,2.61,0,0,0,.68,1.88l0,0A27.55,27.55,0,0,1,17.47,33,12.41,12.41,0,0,1,18.35,37.69ZM33,32.83ZM16.26,26.07Zm0,0Z"/><path d="M13.76,7.17H5.2a1.16,1.16,0,0,1,0-2.31h8.56a1.16,1.16,0,0,1,0,2.31Z"/><path d="M10.75,12a1.15,1.15,0,0,1-.72-.25l-6.24-5a1.18,1.18,0,0,1-.44-.92A1.2,1.2,0,0,1,3.81,5L10.05.23a1.16,1.16,0,0,1,1.4,1.85L6.39,5.91,11.47,10a1.16,1.16,0,0,1,.18,1.63A1.15,1.15,0,0,1,10.75,12Z"/><line x1="34.8" y1="6.01" x2="26.24" y2="6.01"/><path d="M34.8,7.17H26.24a1.16,1.16,0,0,1,0-2.31H34.8a1.16,1.16,0,0,1,0,2.31Z"/><path d="M29.25,12a1.15,1.15,0,0,1-.9-.43A1.16,1.16,0,0,1,28.53,10l5.08-4.05L28.55,2.08A1.16,1.16,0,0,1,30,.23L36.19,5a1.2,1.2,0,0,1,.46.91,1.18,1.18,0,0,1-.44.92l-6.24,5A1.15,1.15,0,0,1,29.25,12Z"/></svg>