<svg xmlns="http://www.w3.org/2000/svg" width="25.77" height="30.52" viewBox="0 0 25.77 30.52"><title>アセット 4</title><g id="レイヤー_2" data-name="レイヤー 2"><g id="レイヤー_1-2" data-name="レイヤー 1"><path d="M21.33,30.52H7.85A1.55,1.55,0,0,1,6.3,29a12.46,12.46,0,0,0-.63-4.42,25.16,25.16,0,0,0-4.25-5l-.06-.06A5,5,0,0,1,0,15.86a3.64,3.64,0,0,1,1.17-2.62,3.63,3.63,0,0,1,5.14.07V3.77a3.77,3.77,0,1,1,7.54,0V8.33a3.35,3.35,0,0,1,1.26,0,3,3,0,0,1,2,1.22,3.5,3.5,0,0,1,2-.06,3.21,3.21,0,0,1,2,1.54,3.74,3.74,0,0,1,3,.47A4.21,4.21,0,0,1,25.74,15c0,.11,0,.27,0,.46a19.26,19.26,0,0,1-.84,7c-.14.38-.36.81-.56,1.22l-.11.22c0,.07-.09.14-.14.21a7.13,7.13,0,0,0-1.17,2.17c-.06.56-.06,2.15-.05,2.71A1.55,1.55,0,0,1,21.33,30.52ZM8.61,28.21h12c0-.71,0-1.71.07-2.23a8.74,8.74,0,0,1,1.59-3.25l.06-.12a10,10,0,0,0,.46-1,16.8,16.8,0,0,0,.7-6.12c0-.23,0-.41,0-.54h0a2,2,0,0,0-.64-1.52,1.33,1.33,0,0,0-1.55.08,1.13,1.13,0,0,1-1.18.28,1.15,1.15,0,0,1-.78-.94,1.26,1.26,0,0,0-.75-1.11,1,1,0,0,0-1.11.28l-.1.1a1.15,1.15,0,0,1-1.19.29,1.16,1.16,0,0,1-.78-.95c-.09-.68-.21-.77-.7-.87a.82.82,0,0,0-1,.48,1.16,1.16,0,0,1-2.16-.58V3.77a1.46,1.46,0,1,0-2.92,0v7.85l0,4.33a1.17,1.17,0,0,1-.83,1.11,1.15,1.15,0,0,1-1.2-.35l-1-.91c-.47-.42-.73-.66-.84-.77a1.35,1.35,0,0,0-2-.12L2.7,15a1.32,1.32,0,0,0-.39,1A2.57,2.57,0,0,0,3,17.85l0,0a27.24,27.24,0,0,1,4.7,5.62A12.63,12.63,0,0,1,8.61,28.21ZM23.2,23.35ZM6.51,16.59Z"/></g></g></svg>