<svg xmlns="http://www.w3.org/2000/svg" width="270" height="270" viewBox="0 0 270 270"><title>ScrollHint</title><rect width="270" height="270" rx="8.26" ry="8.26" fill="#fff"/><path d="M190.85,153c0-4.21-2.07-7.94-4.38-9.49-2.64-1.76-7.93-2.64-11.45.88h0c-.49-3.65-2.64-7-6.16-7.92a8.33,8.33,0,0,0-8.41,2.25l-.39.39c-.49-3.65-1.76-6.16-6.16-7a7.54,7.54,0,0,0-8.35,3.92V110.35a9.95,9.95,0,0,0-19.9,0v29.87l.08,16.52c-.25-.38-6.39-5.8-7.22-6.63-4.67-4.67-10.58-3.71-13.82-.47-4.51,3.77-3.82,12.77.85,17.44.34.33,13,12.28,17.2,20.38,3.1,6,2.91,18.85,2.91,18.85a1.48,1.48,0,0,0,1.48,1.48h51.35a1.48,1.48,0,0,0,1.48-1.48s-.11-8,.22-10.89c.29-2.53,3.26-7.85,5.41-10.51.88-1.76,1.84-3.61,2.36-5C191.92,169.13,190.83,156.24,190.85,153Z" fill="#fff"/><path d="M125.08,219.5a8.39,8.39,0,0,1-8.38-8.38c.07-5.12-.63-13.86-2.4-17.33-2.76-5.37-10.65-13.91-17.12-20.12l-.26-.24A22.5,22.5,0,0,1,90.72,157,17.5,17.5,0,0,1,108,140a16.74,16.74,0,0,1,8.74,2.48V107.15a17.55,17.55,0,0,1,35.1,0v16.6h.41a16.51,16.51,0,0,1,3.19.32,14.7,14.7,0,0,1,8.55,4.71,15.59,15.59,0,0,1,3.62-.43,18,18,0,0,1,4.36.56,15,15,0,0,1,8.58,6,17,17,0,0,1,3-.27,17.41,17.41,0,0,1,9.57,2.82c4.67,3.11,7.79,9.52,7.76,16,0,.4,0,.95,0,1.64v.18c.16,5.49.55,18.34-3.59,29.59a55.23,55.23,0,0,1-2.41,5.21l-.46.91a6.31,6.31,0,0,1-.78,1.22,29.83,29.83,0,0,0-4.4,7.95c-.23,1.94-.24,7.72-.2,10.9a8.43,8.43,0,0,1-2.45,6,8.3,8.3,0,0,1-5.93,2.47ZM175.53,206c0-2.68.1-5.64.3-7.4.58-5,5-11.84,6.83-14.25l.17-.34c.68-1.35,1.45-2.89,1.79-3.81,3.24-8.78,2.92-19.4,2.77-24.5,0-1-.06-1.76,0-2.31a6.44,6.44,0,0,0-1.73-4.61,4.63,4.63,0,0,0-2.12-.54,2.33,2.33,0,0,0-1.74.65A6.77,6.77,0,0,1,170.26,145c-.2-1.44-.92-2.75-1.61-2.93a4.4,4.4,0,0,0-1-.15,2.19,2.19,0,0,0-1.66.81l-.38.39A6.77,6.77,0,0,1,154,139.24a4.43,4.43,0,0,0-.38-1.67h0a7.23,7.23,0,0,0-.91-.22,2.52,2.52,0,0,0-.54-.08c-.19,0-.7,0-1.32,1.08a6.8,6.8,0,0,1-5.85,3.38,6.63,6.63,0,0,1-1.77-.24,6.78,6.78,0,0,1-5-6.53V107.15a4,4,0,1,0-8,0v32.37l.08,17.86a6.78,6.78,0,0,1-4.81,6.51,6.56,6.56,0,0,1-2,.29,6.73,6.73,0,0,1-5-2.27c-.59-.57-2.7-2.47-4-3.63-2-1.82-3.09-2.79-3.57-3.26a4.29,4.29,0,0,0-3-1.49,3.56,3.56,0,0,0-2.4,1,5.62,5.62,0,0,1-.44.41,3.79,3.79,0,0,0-.86,2.64,8.75,8.75,0,0,0,2.22,6.27l.07.07c4.53,4.33,15.5,15.32,19.8,23.71,2.66,5.18,3.51,13.09,3.78,18.35Z" fill="#009688"/><path d="M134.25,91.6a15.57,15.57,0,0,1,15.55,15.55V126a12.79,12.79,0,0,1,2.41-.22,14.22,14.22,0,0,1,2.8.28,12.29,12.29,0,0,1,8.18,5.06,13.05,13.05,0,0,1,4.38-.74,16.33,16.33,0,0,1,3.88.5,13.24,13.24,0,0,1,8.14,6.34,14.87,14.87,0,0,1,4-.53,15.5,15.5,0,0,1,8.46,2.48c4.14,2.76,6.9,8.5,6.87,14.28,0,.45,0,1.09,0,1.89.16,5.37.54,17.95-3.47,28.84a53,53,0,0,1-2.32,5l-.45.91a5.28,5.28,0,0,1-.56.86c-2.26,2.8-4.66,7.62-4.83,8.94-.26,2.32-.24,8.86-.21,11.19a6.4,6.4,0,0,1-6.38,6.44H125.08a6.38,6.38,0,0,1-6.38-6.38c.07-5-.58-14.26-2.62-18.24-2.87-5.59-10.93-14.33-17.52-20.65l-.25-.24a20.45,20.45,0,0,1-5.59-15,14.92,14.92,0,0,1,4.82-10.83A15.09,15.09,0,0,1,108,142a15.47,15.47,0,0,1,10.76,4.53l0-7V107.15A15.57,15.57,0,0,1,134.25,91.6m-10.7,70.58a4.74,4.74,0,0,1-3.6-1.65c-.54-.53-2.67-2.45-4.1-3.74-1.93-1.74-3-2.74-3.48-3.19a6.22,6.22,0,0,0-4.42-2.07,5.57,5.57,0,0,0-3.81,1.57l-.32.29a5.6,5.6,0,0,0-1.57,4.08,10.69,10.69,0,0,0,2.81,7.77l.1.11c4.45,4.26,15.24,15.05,19.4,23.18,2.83,5.51,3.5,14.55,3.64,19.43h49.32c0-2.9,0-7,.3-9.18.47-4.15,4.32-10.5,6.54-13.41l.25-.5c.74-1.47,1.51-3,1.89-4,3.37-9.15,3-20,2.89-25.26,0-.94,0-1.7,0-2.23h0c0-3.08-1.55-5.57-2.62-6.28a6.35,6.35,0,0,0-3.23-.88,4.33,4.33,0,0,0-3.15,1.23,4.78,4.78,0,0,1-3.38,1.4,4.7,4.7,0,0,1-1.52-.25,4.77,4.77,0,0,1-3.2-3.88c-.27-2-1.33-4.15-3.11-4.6a6.67,6.67,0,0,0-1.52-.21,4.14,4.14,0,0,0-3.07,1.4l-.39.4a4.78,4.78,0,0,1-3.4,1.42,4.69,4.69,0,0,1-1.51-.25A4.75,4.75,0,0,1,156,139c-.38-2.82-.89-3.2-2.89-3.6a5,5,0,0,0-.93-.11,3.46,3.46,0,0,0-3.05,2.08,4.8,4.8,0,0,1-4.13,2.38,4.81,4.81,0,0,1-4.77-4.77V107.15a6,6,0,1,0-12,0v32.37l.08,17.87a4.77,4.77,0,0,1-3.39,4.59,4.7,4.7,0,0,1-1.38.2m-4-2.15h0m68.84,27.9h0M134.25,87.6a19.57,19.57,0,0,0-19.55,19.55v32.07A18.53,18.53,0,0,0,108,138a19.15,19.15,0,0,0-13.14,5.3,18.9,18.9,0,0,0-6.1,13.61,24.51,24.51,0,0,0,6.75,17.95l0,0,0,0,.25.25c8,7.66,14.56,15.35,16.74,19.59,1.4,2.74,2.26,10.68,2.18,16.37v.05a10.4,10.4,0,0,0,10.38,10.38H180.7a10.4,10.4,0,0,0,10.38-10.44V211c0-3.26,0-8.59.17-10.52a30,30,0,0,1,4-7,8.74,8.74,0,0,0,1-1.59l.45-.89a54.12,54.12,0,0,0,2.5-5.43c4.28-11.61,3.89-24.74,3.72-30.34V155c0-.66,0-1.19,0-1.57,0-7.18-3.36-14.1-8.65-17.63a19.65,19.65,0,0,0-12.84-3,16.78,16.78,0,0,0-9-5.81,20,20,0,0,0-4.85-.62,17.71,17.71,0,0,0-2.92.25,16.93,16.93,0,0,0-8.86-4.49,19.47,19.47,0,0,0-2-.29V107.15A19.57,19.57,0,0,0,134.25,87.6Zm-10.7,78.58a8.66,8.66,0,0,0,2.53-.37,8.81,8.81,0,0,0,6.24-8.44l-.08-17.87V107.15a2,2,0,1,1,4,0V135a8.77,8.77,0,0,0,15.9,5.11,8.75,8.75,0,0,0,8.59,7A8.8,8.8,0,0,0,167,144.5l.4-.41.23-.19a1,1,0,0,1,.22,0,3.71,3.71,0,0,1,.44,1.31,8.7,8.7,0,0,0,5.88,7.14,8.93,8.93,0,0,0,2.8.46,8.71,8.71,0,0,0,6.21-2.57c.05-.06.3-.06.32-.06a2.83,2.83,0,0,1,.94.19,5.08,5.08,0,0,1,.91,3c0,.61,0,1.44,0,2.38.15,5,.46,15.33-2.64,23.74-.31.83-1.05,2.3-1.71,3.61l-.09.18c-2,2.67-6.49,9.72-7.11,15.08-.14,1.25-.24,3.14-.28,5.63H132c-.41-5.77-1.44-12.48-3.89-17.26-4.28-8.36-14.49-18.77-20.19-24.24l-.07-.07a6.77,6.77,0,0,1-1.61-4.74,3.38,3.38,0,0,1,.25-1.29l.46-.43a1.59,1.59,0,0,1,1-.4,2.63,2.63,0,0,1,1.59.9c.51.51,1.54,1.44,3.63,3.33,1.17,1.06,3.27,3,3.88,3.54a8.78,8.78,0,0,0,6.5,2.88Z" fill="#fff"/><path d="M96.85,104.6A7.35,7.35,0,0,1,92.31,103L66.56,82.45A7.27,7.27,0,0,1,66.71,71L92.46,51.47a7.27,7.27,0,0,1,10.18,1.41,7.26,7.26,0,0,1-1.4,10.18L92,70h17.21a7.27,7.27,0,0,1,0,14.54H92.52l8.86,7.08a7.27,7.27,0,0,1-4.53,12.95Z" fill="#009688"/><path d="M96.85,52.5a4.77,4.77,0,0,1,2.88,8.57L84.6,72.53h24.65a4.77,4.77,0,0,1,0,9.54H85.38L99.82,93.6a4.77,4.77,0,0,1-3,8.5,4.72,4.72,0,0,1-3-1L68.12,80.5a4.77,4.77,0,0,1,.1-7.53L94,53.47a4.76,4.76,0,0,1,2.88-1m0-5h0a9.73,9.73,0,0,0-5.9,2L65.2,69A9.78,9.78,0,0,0,65,84.41L90.76,105a9.77,9.77,0,0,0,12.18-15.27l-3.28-2.62h9.59a9.77,9.77,0,0,0,0-19.54H99.48l3.27-2.47a9.77,9.77,0,0,0,1.89-13.69,9.84,9.84,0,0,0-7.79-3.87Z" fill="#fff"/><path d="M173.15,104.6a7.27,7.27,0,0,1-4.53-12.95l8.86-7.08H160.75a7.27,7.27,0,0,1,0-14.54H178l-9.2-7a7.27,7.27,0,0,1,8.78-11.59L203.29,71a7.27,7.27,0,0,1,.15,11.47L177.68,103A7.31,7.31,0,0,1,173.15,104.6Z" fill="#009688"/><path d="M173.15,52.5a4.76,4.76,0,0,1,2.88,1L201.78,73a4.77,4.77,0,0,1,.1,7.53l-25.75,20.55a4.72,4.72,0,0,1-3,1h0a4.77,4.77,0,0,1-3-8.5l14.44-11.53H160.75a4.77,4.77,0,0,1,0-9.54H185.4L170.27,61.07a4.77,4.77,0,0,1,2.88-8.57m0-5a9.77,9.77,0,0,0-9.68,11.1,9.74,9.74,0,0,0,3.78,6.46l3.27,2.47h-9.77a9.77,9.77,0,0,0,0,19.54h9.59l-3.28,2.62A9.77,9.77,0,1,0,179.24,105L205,84.41A9.78,9.78,0,0,0,204.8,69l-25.75-19.5a9.73,9.73,0,0,0-5.9-2Z" fill="#fff"/></svg>