<svg xmlns="http://www.w3.org/2000/svg" width="270" height="270" viewBox="0 0 270 270"><title>ScrollHint</title><rect width="270" height="270" rx="8.26" ry="8.26" fill="#fff"/><rect x="31.39" y="61.15" width="85.44" height="98.26" rx="4.52" ry="4.52" fill="#009688"/><path d="M31.39,121.32v34.17a4.56,4.56,0,0,0,4.79,4.28H112a4.56,4.56,0,0,0,4.79-4.28V121.32Z" fill="#fff"/><path d="M112,61.15H36.18a4.55,4.55,0,0,0-4.79,4.27v90.07a4.56,4.56,0,0,0,4.79,4.28H112a4.56,4.56,0,0,0,4.79-4.28V65.42A4.55,4.55,0,0,0,112,61.15Z" fill="none" stroke="#009688" stroke-miterlimit="10" stroke-width="4"/><rect x="131.2" y="61.15" width="85.44" height="98.26" rx="4.52" ry="4.52" fill="#009688"/><path d="M131.2,121.32v34.17a4.56,4.56,0,0,0,4.79,4.28h75.86a4.56,4.56,0,0,0,4.79-4.28V121.32Z" fill="#fff"/><path d="M211.85,61.15H136a4.55,4.55,0,0,0-4.79,4.27v90.07a4.56,4.56,0,0,0,4.79,4.28h75.86a4.56,4.56,0,0,0,4.79-4.28V65.42A4.55,4.55,0,0,0,211.85,61.15Z" fill="none" stroke="#009688" stroke-miterlimit="10" stroke-width="4"/><rect x="230.2" y="61.15" width="85.44" height="98.26" rx="4.52" ry="4.52" fill="#009688"/><path d="M230.2,121.32v34.17a4.56,4.56,0,0,0,4.79,4.28h75.86a4.56,4.56,0,0,0,4.79-4.28V121.32Z" fill="#fff"/><path d="M310.85,61.15H235a4.55,4.55,0,0,0-4.79,4.27v90.07a4.56,4.56,0,0,0,4.79,4.28h75.86a4.56,4.56,0,0,0,4.79-4.28V65.42A4.55,4.55,0,0,0,310.85,61.15Z" fill="none" stroke="#009688" stroke-miterlimit="10" stroke-width="4"/><path d="M174.28,177.91a8.48,8.48,0,0,0-3.16-6.84c-1.91-1.27-5.71-1.91-8.25.63h0c-.36-2.63-1.91-5.07-4.45-5.71a6,6,0,0,0-6.07,1.62l-.28.29c-.35-2.64-1.27-4.45-4.44-5.08a5.43,5.43,0,0,0-6,2.82v-18.5a7.18,7.18,0,0,0-14.36,0v21.54l.06,11.91c-.18-.27-4.6-4.18-5.2-4.78a6.88,6.88,0,0,0-10-.33c-3.25,2.71-2.75,9.2.61,12.57.25.24,9.41,8.86,12.41,14.7,2.23,4.36,2.09,13.6,2.09,13.6a1.09,1.09,0,0,0,1.08,1.07h37a1.09,1.09,0,0,0,1.08-1.07s-.08-5.77.16-7.86c.21-1.82,2.34-5.66,3.89-7.58a38.77,38.77,0,0,0,1.71-3.62C175.05,189.53,174.26,180.24,174.28,177.91Z" fill="#fff"/><path d="M126.84,226.42a6.61,6.61,0,0,1-6.6-6.6c.06-4.22-.56-10.09-1.67-12.25-1.95-3.81-7.81-10.12-12.23-14.36l-.19-.18a16.8,16.8,0,0,1-4.64-12.3,12.76,12.76,0,0,1,4.12-9.2,12.92,12.92,0,0,1,8.88-3.59,12.53,12.53,0,0,1,5.74,1.39v-24.5a13.22,13.22,0,0,1,26.43,0v11.42a12.35,12.35,0,0,1,8.4,3.57,11.49,11.49,0,0,1,2.42-.25,13.9,13.9,0,0,1,3.28.41,11.28,11.28,0,0,1,6.3,4.28,12.58,12.58,0,0,1,1.94-.15,13.15,13.15,0,0,1,7.22,2.13c3.52,2.35,5.87,7.16,5.84,12,0,.28,0,.66,0,1.12v.17c.12,4,.4,13.34-2.63,21.55a36.83,36.83,0,0,1-1.76,3.83l-.33.65a5.43,5.43,0,0,1-.63,1,21.3,21.3,0,0,0-3.06,5.49c-.15,1.32-.16,5.46-.13,7.74a6.61,6.61,0,0,1-1.93,4.73,6.5,6.5,0,0,1-4.67,1.95Zm35.84-10.88c0-1.79.08-3.67.21-4.85.43-3.72,3.65-8.7,5-10.51l.1-.2c.48-1,1-2,1.27-2.69,2.29-6.23,2.06-13.81,1.95-17.46,0-.71,0-1.28,0-1.68a4.24,4.24,0,0,0-1-2.87A2.71,2.71,0,0,0,169,175a1.12,1.12,0,0,0-.87.3,5.43,5.43,0,0,1-3.84,1.59,5.66,5.66,0,0,1-1.74-.28,5.4,5.4,0,0,1-3.65-4.43,2.46,2.46,0,0,0-.75-1.64,2.57,2.57,0,0,0-.61-.09c-.17,0-.38,0-.8.42l-.27.27a5.49,5.49,0,0,1-3.88,1.62,5.34,5.34,0,0,1-1.72-.28,5.41,5.41,0,0,1-3.67-4.43c-.06-.42-.11-.67-.14-.82l-.35-.08-.28,0c-.17,0-.42.42-.47.5a5.44,5.44,0,0,1-4.7,2.72,5.65,5.65,0,0,1-1.42-.19,5.45,5.45,0,0,1-4-5.25V144.83a2.34,2.34,0,0,0-4.68,0v23.35l.07,12.88a5.45,5.45,0,0,1-9.5,3.65c-.42-.41-1.91-1.76-2.82-2.57-1.59-1.44-2.27-2-2.61-2.39a2.61,2.61,0,0,0-1.77-.91,2,2,0,0,0-1.34.55l-.35.32a2.4,2.4,0,0,0-.42,1.5,5.7,5.7,0,0,0,1.44,4.1l.05.05c3.27,3.14,11.24,11.11,14.38,17.25,1.82,3.54,2.52,8.68,2.76,12.93Z" fill="#009688"/><path d="M133.46,133.62a11.22,11.22,0,0,1,11.21,11.21v13.58a9.16,9.16,0,0,1,1.74-.16,10,10,0,0,1,2,.2,8.87,8.87,0,0,1,5.9,3.64,9.73,9.73,0,0,1,3.16-.52,12,12,0,0,1,2.8.35,9.55,9.55,0,0,1,5.87,4.58,10.33,10.33,0,0,1,2.86-.39,11.21,11.21,0,0,1,6.1,1.79c3,2,5,6.13,4.95,10.3,0,.32,0,.79,0,1.36.12,3.88.39,12.95-2.5,20.8a35.6,35.6,0,0,1-1.68,3.62l-.32.65a3.65,3.65,0,0,1-.4.62,21.66,21.66,0,0,0-3.49,6.45c-.19,1.68-.17,6.39-.15,8.07a4.62,4.62,0,0,1-4.6,4.65H126.84a4.61,4.61,0,0,1-4.6-4.6c.05-3.6-.42-10.29-1.89-13.16-2.06-4-7.88-10.34-12.63-14.89l-.18-.18a14.7,14.7,0,0,1-4-10.77A10.75,10.75,0,0,1,107,173a10.91,10.91,0,0,1,7.53-3.06,11.17,11.17,0,0,1,7.76,3.26l0-5V144.83a11.23,11.23,0,0,1,11.22-11.21m-7.71,50.9a3.43,3.43,0,0,1-2.6-1.19c-.39-.38-1.93-1.77-3-2.7-1.39-1.25-2.19-2-2.51-2.3a4.48,4.48,0,0,0-3.19-1.49,4,4,0,0,0-2.75,1.13l-.23.21a4.06,4.06,0,0,0-1.13,2.94,7.76,7.76,0,0,0,2,5.61l.08.07c3.21,3.08,11,10.86,14,16.72,2,4,2.52,10.5,2.63,14h35.57c0-2.1,0-5.07.21-6.62.34-3,3.11-7.58,4.72-9.68l.18-.36a30.07,30.07,0,0,0,1.36-2.9c2.43-6.59,2.2-14.44,2.08-18.21,0-.68,0-1.23,0-1.61h0a5.86,5.86,0,0,0-1.89-4.53A4.56,4.56,0,0,0,169,173a3.12,3.12,0,0,0-2.27.88,3.44,3.44,0,0,1-5.84-2c-.19-1.42-1-3-2.24-3.31a4.52,4.52,0,0,0-1.1-.15,3,3,0,0,0-2.22,1l-.28.29a3.49,3.49,0,0,1-3.54.85,3.47,3.47,0,0,1-2.32-2.81c-.27-2-.63-2.3-2.08-2.59a3.5,3.5,0,0,0-.67-.08,2.49,2.49,0,0,0-2.2,1.5,3.43,3.43,0,0,1-3,1.72,3.48,3.48,0,0,1-.9-.12,3.44,3.44,0,0,1-2.54-3.32V144.83a4.34,4.34,0,0,0-8.68,0v23.35l.06,12.89a3.41,3.41,0,0,1-2.44,3.3,3.45,3.45,0,0,1-1,.15M122.87,183h0m49.65,20.12h0m-39.06-73.47a15.23,15.23,0,0,0-15.22,15.21v21.6a14.15,14.15,0,0,0-3.73-.49,14.93,14.93,0,0,0-10.23,4.11,14.74,14.74,0,0,0-4.77,10.59,18.85,18.85,0,0,0,5.2,13.78l0,0,0,0,.18.17c5.69,5.46,10.34,10.88,11.85,13.84.84,1.63,1.52,6.9,1.45,11.28v.06a8.61,8.61,0,0,0,8.6,8.6H167a8.49,8.49,0,0,0,6.09-2.54,8.61,8.61,0,0,0,2.51-6.11v-.05c0-2.2,0-5.91.11-7.34a21,21,0,0,1,2.64-4.62,6.51,6.51,0,0,0,.86-1.34l.33-.64a42.24,42.24,0,0,0,1.85-4c3.16-8.58,2.87-18.2,2.75-22.31v-.14c0-.45,0-.81,0-1.08,0-5.54-2.61-10.9-6.74-13.65a15.17,15.17,0,0,0-8.31-2.46c-.37,0-.73,0-1.09,0a13.19,13.19,0,0,0-6.67-4.11,16,16,0,0,0-3.77-.47,12.51,12.51,0,0,0-1.74.11,13.65,13.65,0,0,0-6.53-3.15l-.55-.1v-9.6a15.22,15.22,0,0,0-15.21-15.21Zm-7.71,58.9a7.8,7.8,0,0,0,2.14-.31,7.49,7.49,0,0,0,5.29-7.16l-.06-12.89V144.83a.34.34,0,0,1,.68,0v20.06a7.44,7.44,0,0,0,5.51,7.18,7.31,7.31,0,0,0,1.93.26,7.46,7.46,0,0,0,4.69-1.67,7.45,7.45,0,0,0,4.29,3.72,7.23,7.23,0,0,0,2.35.38,7.43,7.43,0,0,0,4.48-1.5,7.45,7.45,0,0,0,12,3.92,2.85,2.85,0,0,1,.17,1c0,.42,0,1,0,1.75.11,3.52.33,10.84-1.83,16.71-.2.53-.74,1.61-1.18,2.48l0,0c-1.76,2.38-4.83,7.39-5.28,11.33-.09.75-.15,1.77-.19,3.08H132.87c-.35-4-1.14-8.53-2.84-11.84-3.16-6.18-10.62-13.79-14.78-17.79l0,0a3.82,3.82,0,0,1-.83-2.58,1.46,1.46,0,0,1,0-.35.6.6,0,0,1,.08-.08,3.35,3.35,0,0,1,.35.29c.39.39,1.14,1.07,2.66,2.44.76.69,2.29,2.07,2.75,2.5a7.41,7.41,0,0,0,5.49,2.42Z" fill="#fff"/><path d="M106.48,143.69a5.94,5.94,0,0,1-3.7-1.3L84.21,127.56a5.92,5.92,0,0,1,.12-9.37l18.57-14.07a5.87,5.87,0,0,1,3.58-1.2,5.94,5.94,0,0,1,3.59,10.67l-5,3.77h10.34a5.94,5.94,0,0,1,0,11.88H105.35l4.84,3.86a5.94,5.94,0,0,1-3.71,10.59Z" fill="#009688"/><path d="M106.48,105.42a3.44,3.44,0,0,1,2.08,6.18l-10.91,8.26h17.78a3.44,3.44,0,0,1,0,6.88H98.21l10.42,8.32a3.44,3.44,0,1,1-4.29,5.37L85.77,125.61a3.43,3.43,0,0,1,.07-5.43l18.57-14.07a3.41,3.41,0,0,1,2.07-.69m0-5h0a8.37,8.37,0,0,0-5.09,1.71L82.82,116.19a8.44,8.44,0,0,0-.17,13.33l18.57,14.82a8.44,8.44,0,0,0,11.2-12.6h3a8.44,8.44,0,0,0,0-16.88h-3a8.43,8.43,0,0,0,.79-11.1,8.48,8.48,0,0,0-6.73-3.34Z" fill="#fff"/><path d="M161.51,143.69a5.94,5.94,0,0,1-3.7-10.59l4.84-3.86H152.57a5.94,5.94,0,1,1,0-11.88h10.34l-5-3.77a5.94,5.94,0,0,1-1.15-8.32,5.95,5.95,0,0,1,8.32-1.15l18.57,14.07a5.92,5.92,0,0,1,.12,9.37l-18.57,14.83a5.94,5.94,0,0,1-3.7,1.3Z" fill="#009688"/><path d="M161.52,105.42a3.41,3.41,0,0,1,2.07.69l18.57,14.07a3.43,3.43,0,0,1,.07,5.43l-18.57,14.82a3.4,3.4,0,0,1-2.14.76h0a3.44,3.44,0,0,1-2.15-6.13l10.42-8.32H152.57a3.44,3.44,0,0,1,0-6.88h17.78l-10.91-8.26a3.44,3.44,0,0,1,2.08-6.18m0-5a8.45,8.45,0,0,0-8.37,9.59,8.38,8.38,0,0,0,2.43,4.85h-3a8.44,8.44,0,1,0,0,16.88h3a8.44,8.44,0,0,0,11.2,12.6l18.57-14.82a8.44,8.44,0,0,0-.17-13.33l-18.57-14.06a8.37,8.37,0,0,0-5.09-1.71Z" fill="#fff"/></svg>